HIERARCHY
ROOT hip
{
  OFFSET 0 0 0
  CHANNELS 6 Xposition Yposition Zposition Zrotation Yrotation Xrotation
  JOINT abdomen
  {
    OFFSET 0 20.6881 -0.73152
    CHANNELS 3 Zrotation Xrotation Yrotation
    JOINT chest
    {
      OFFSET 0 11.7043 -0.48768
      CHANNELS 3 Zrotation Xrotation Yrotation
      JOINT neck
      {
        OFFSET 0 22.1894 -2.19456
        CHANNELS 3 Zrotation Xrotation Yrotation
        JOINT head
        {
          OFFSET -0.24384 7.07133 1.2192
          CHANNELS 3 Zrotation Xrotation Yrotation
          JOINT leftEye
          {
            OFFSET 4.14528 8.04674 8.04672
            CHANNELS 3 Zrotation Xrotation Yrotation
            End Site
            {
              OFFSET 1 0 0
            }
          }
          JOINT rightEye
          {
            OFFSET -3.6576 8.04674 8.04672
            CHANNELS 3 Zrotation Xrotation Yrotation
            End Site
            {
              OFFSET 1 0 0
            }
          }
        }
      }
      JOINT rCollar
      {
        OFFSET -2.68224 19.2634 -4.8768
        CHANNELS 3 Zrotation Xrotation Yrotation
        JOINT rShldr
        {
          OFFSET -8.77824 -1.95073 1.46304
          CHANNELS 3 Zrotation Xrotation Yrotation
          JOINT rForeArm
          {
            OFFSET -28.1742 -1.7115 0.48768
            CHANNELS 3 Zrotation Xrotation Yrotation
            JOINT rHand
            {
              OFFSET -22.5879 0.773209 7.07136
              CHANNELS 3 Zrotation Xrotation Yrotation
              JOINT rThumb1
              {
                OFFSET -1.2192 -0.487915 3.41376
                CHANNELS 3 Zrotation Xrotation Yrotation
                JOINT rThumb2
                {
                  OFFSET -3.37035 -0.52449 3.41376
                  CHANNELS 3 Zrotation Xrotation Yrotation
                  End Site
                  {
                    OFFSET -1.78271 -1.18214 1.43049
                  }
                }
              }
              JOINT rIndex1
              {
                OFFSET -7.75947 0.938293 5.60832
                CHANNELS 3 Zrotation Xrotation Yrotation
                JOINT rIndex2
                {
                  OFFSET -2.54057 -0.884171 1.56538
                  CHANNELS 3 Zrotation Xrotation Yrotation
                  End Site
                  {
                    OFFSET -1.62519 -0.234802 1.16502
                  }
                }
              }
              JOINT rMid1
              {
                OFFSET -8.24714 1.18213 3.41376
                CHANNELS 3 Zrotation Xrotation Yrotation
                JOINT rMid2
                {
                  OFFSET -3.10165 -0.590103 1.0647
                  CHANNELS 3 Zrotation Xrotation Yrotation
                  End Site
                  {
                    OFFSET -2.48547 -0.328903 0.83742
                  }
                }
              }
              JOINT rRing1
              {
                OFFSET -8.82822 0.546677 1.51678
                CHANNELS 3 Zrotation Xrotation Yrotation
                JOINT rRing2
                {
                  OFFSET -2.60934 -0.819778 -0.0198488
                  CHANNELS 3 Zrotation Xrotation Yrotation
                  End Site
                  {
                    OFFSET -2.33842 -0.294052 0.168128
                  }
                }
              }
              JOINT rPinky1
              {
                OFFSET -8.27202 -0.0477905 -0.4584
                CHANNELS 3 Zrotation Xrotation Yrotation
                JOINT rPinky2
                {
                  OFFSET -1.82734 -0.647385 -0.700984
                  CHANNELS 3 Zrotation Xrotation Yrotation
                  End Site
                  {
                    OFFSET -1.69225 -0.51767 -0.607171
                  }
                }
              }
            }
          }
        }
      }
      JOINT lCollar
      {
        OFFSET 2.68224 19.2634 -4.8768
        CHANNELS 3 Zrotation Xrotation Yrotation
        JOINT lShldr
        {
          OFFSET 8.77824 -1.95073 1.46304
          CHANNELS 3 Zrotation Xrotation Yrotation
          JOINT lForeArm
          {
            OFFSET 28.1742 -1.7115 0.48768
            CHANNELS 3 Zrotation Xrotation Yrotation
            JOINT lHand
            {
              OFFSET 22.5879 0.773209 7.07136
              CHANNELS 3 Zrotation Xrotation Yrotation
              JOINT lThumb1
              {
                OFFSET 1.2192 -0.487915 3.41376
                CHANNELS 3 Zrotation Xrotation Yrotation
                JOINT lThumb2
                {
                  OFFSET 3.37035 -0.52449 3.41376
                  CHANNELS 3 Zrotation Xrotation Yrotation
                  End Site
                  {
                    OFFSET 1.78271 -1.18214 1.43049
                  }
                }
              }
              JOINT lIndex1
              {
                OFFSET 7.75947 0.938293 5.60832
                CHANNELS 3 Zrotation Xrotation Yrotation
                JOINT lIndex2
                {
                  OFFSET 2.54057 -0.884171 1.56538
                  CHANNELS 3 Zrotation Xrotation Yrotation
                  End Site
                  {
                    OFFSET 1.62519 -0.234802 1.16502
                  }
                }
              }
              JOINT lMid1
              {
                OFFSET 8.24714 1.18213 3.41376
                CHANNELS 3 Zrotation Xrotation Yrotation
                JOINT lMid2
                {
                  OFFSET 3.10165 -0.590103 1.0647
                  CHANNELS 3 Zrotation Xrotation Yrotation
                  End Site
                  {
                    OFFSET 2.48547 -0.328903 0.83742
                  }
                }
              }
              JOINT lRing1
              {
                OFFSET 8.82822 0.546677 1.51678
                CHANNELS 3 Zrotation Xrotation Yrotation
                JOINT lRing2
                {
                  OFFSET 2.60934 -0.819778 -0.0198488
                  CHANNELS 3 Zrotation Xrotation Yrotation
                  End Site
                  {
                    OFFSET 2.33842 -0.294052 0.168128
                  }
                }
              }
              JOINT lPinky1
              {
                OFFSET 8.27202 -0.0477905 -0.4584
                CHANNELS 3 Zrotation Xrotation Yrotation
                JOINT lPinky2
                {
                  OFFSET 1.82734 -0.647385 -0.700984
                  CHANNELS 3 Zrotation Xrotation Yrotation
                  End Site
                  {
                    OFFSET 1.69225 -0.51767 -0.607171
                  }
                }
              }
            }
          }
        }
      }
    }
  }
  JOINT rButtock
  {
    OFFSET -8.77824 4.35084 1.2192
    CHANNELS 3 Zrotation Xrotation Yrotation
    JOINT rThigh
    {
      OFFSET 0 -1.70687 -2.19456
      CHANNELS 3 Zrotation Xrotation Yrotation
      JOINT rShin
      {
        OFFSET 0 -36.8199 0.73152
        CHANNELS 3 Zrotation Xrotation Yrotation
        JOINT rFoot
        {
          OFFSET 0.73152 -45.1104 -5.12064
          CHANNELS 3 Zrotation Xrotation Yrotation
          End Site
          {
            OFFSET -1.1221 -3.69964 12.103
          }
        }
      }
    }
  }
  JOINT lButtock
  {
    OFFSET 8.77824 4.35084 1.2192
    CHANNELS 3 Zrotation Xrotation Yrotation
    JOINT lThigh
    {
      OFFSET 0 -1.70687 -2.19456
      CHANNELS 3 Zrotation Xrotation Yrotation
      JOINT lShin
      {
        OFFSET 0 -36.8199 0.73152
        CHANNELS 3 Zrotation Xrotation Yrotation
        JOINT lFoot
        {
          OFFSET -0.73152 -45.1104 -5.12064
          CHANNELS 3 Zrotation Xrotation Yrotation
          End Site
          {
            OFFSET 1.1221 -3.69964 12.103
          }
        }
      }
    }
  }
}
MOTION
Frames:	4
Frame Time:	0.00833333
44.2074 79.9068 37.0704 -0.0 0.0 -0.0 -0.0 -4.771896 -180.0 0.0 -4.771896 -180.0 11.359575 6.157081 79.425429 -8.145262 10.039281 -79.321748 0.0 -0.0 -0.0 0.0 -0.0 -0.0 3.268835 -26.755826 -5.241683 88.541499 -87.442233 86.923273 21.950537 -83.316184 -16.14123 170.069788 -18.162883 143.642389 -157.999472 4.19495 88.450978 -176.693664 -16.299666 86.080156 -132.81837 12.807409 111.109258 79.41714 -73.798583 22.550779 3.77609 -11.559351 -1.812841 -14.952435 33.072013 9.790616 -0.000142 -0.018533 -0.005823 1.092907 -21.750281 -2.551727 6.227694 18.789635 5.573717 13.447503 44.364265 7.481349 -3.542039 -62.05305 13.039183 136.315441 65.501508 -134.602264 -166.325655 1.693514 -154.033279 167.364155 43.734913 -140.144985 85.829417 38.630721 -47.955432 -26.951509 -29.509605 -21.372481 46.208543 39.652969 -36.318179 -6.86444 -11.5619 11.638872 -23.903801 -61.333833 -1.399383 -1.401357 0.443291 -2.970019 72.350995 72.974965 -90.218005 21.021997 -58.921627 38.827483 48.628323 -49.12444 47.366889 7.050228 -22.930827 7.558818 -180.0 75.749642 -0.0 -180.0 73.473292 -180.0 -7.478983 -7.83234 -90.409647 -153.848424 19.534932 96.950978 -180.0 75.749642 -0.0 -180.0 73.473292 -180.0 7.080248 -6.369655 103.605104 75.612272 67.114235 -2.95766
44.7407 79.764 36.9081 -0.0 0.0 -0.0 0.0 0.0 0.0 -0.0 -0.0 0.0 1.681211 -0.191291 9.638157 -1.625502 0.469952 -9.628684 0.0 0.0 0.0 0.0 0.0 0.0 3.268835 -26.755826 -5.241683 -145.683225 73.013656 145.008802 164.437059 0.031751 163.149052 -131.619719 70.242132 110.164882 -0.491581 0.484673 0.077556 25.939836 -42.300285 -16.404997 -140.164771 2.326489 115.87806 15.052133 8.426299 -12.749214 -160.937898 -7.488186 143.367502 -0.317839 17.812795 3.804204 -145.118941 0.185402 -179.186584 -140.385901 -33.377519 -173.425559 -77.071637 -51.585313 -75.529817 -156.508525 55.391972 -152.623451 -3.268835 -26.755826 5.241683 156.383009 66.188762 -155.530368 20.671973 -82.845084 25.0044 -0.456165 -1.454573 -0.055593 -83.25393 -50.258079 -33.616048 91.864285 38.72908 -54.601315 151.353117 -17.158427 -121.133109 147.415553 -8.556914 -120.686727 36.036059 51.723116 -29.832321 89.976806 66.680668 -80.420352 145.118942 0.185466 179.186604 34.151743 -76.360282 65.868291 -1.134951 3.04054 -1.043633 26.518388 -40.963856 24.724112 -180.0 75.749642 -0.0 -180.0 73.473292 -180.0 -7.487405 -7.889608 -89.906085 -153.444051 10.001066 100.255601 -180.0 75.749642 -0.0 -180.0 73.473292 -180.0 7.141193 -6.527402 102.138307 9.000985 24.663234 71.414191
45.2959 79.6367 36.639 -0.0 -0.0 0.0 0.0 0.0 0.0 0.0 -0.0 -0.0 -7.906765 12.08614 -91.106352 11.93363 8.136982 91.092829 0.0 -0.0 -0.0 0.0 -0.0 -0.0 3.268835 -26.755826 -5.241683 88.541499 -87.442233 86.923273 21.950537 -83.316184 -16.14123 170.069788 -18.162883 143.642389 -5.334418 5.1708 1.053878 -29.915225 22.121118 29.01837 -164.632357 -40.669475 122.446028 18.54597 8.750597 -4.967875 89.035113 -81.393384 59.759886 -153.148401 18.89584 135.474986 -77.742735 72.902851 95.870145 -159.925798 2.055896 -173.487362 -147.20517 18.767774 -143.593743 -3.84837 -17.721718 -9.261275 -3.268835 -26.755826 5.241683 175.918906 -0.457875 -172.993128 179.472468 -6.161909 -178.537409 6.597846 20.565536 -0.485707 -88.928376 -50.831327 -37.599672 93.939195 -86.863843 132.719808 -5.921393 -10.174578 2.968574 -2.408147 -1.449989 -1.708442 -173.123457 -66.297779 -137.614274 154.070631 14.416751 -137.012449 -0.004875 1.770451 -0.556181 84.179386 79.101475 -87.102713 146.213485 15.428129 142.73678 -5.524497 1.979451 1.481755 -0.0 0.0 0.0 -0.0 -0.0 -0.0 2.512346 0.127625 22.075435 96.382494 -47.046576 -8.794343 -0.0 0.0 0.0 -0.0 -0.0 -0.0 -2.512346 0.127625 -22.075435 -96.382494 -47.046576 8.794343
45.9477 79.556 36.1641 -0.0 -0.0 0.0 0.0 0.0 0.0 0.0 -0.0 -0.0 -7.906765 12.08614 -91.106352 11.93363 8.136982 91.092829 0.0 -0.0 -0.0 0.0 -0.0 -0.0 -80.1661 68.371792 83.260848 16.92521 14.247477 -0.155641 158.686635 43.413494 174.687039 -160.090395 54.004866 135.011881 -171.603563 -9.286185 89.949897 174.172433 -21.579627 96.260934 -46.208543 39.652969 36.318179 -170.074376 -14.0698 120.437779 -0.219913 0.63841 0.122732 -171.412903 -20.000678 144.313121 -70.641094 72.965227 88.425717 -82.75874 -72.144189 -99.608721 -140.595611 -1.002625 -137.666435 12.518386 22.301662 4.115526 9.651699 34.836178 -11.199233 65.589408 89.2499 -74.767105 65.071965 -77.161995 76.438585 -15.248211 -38.841314 -6.814049 97.282758 37.462278 -56.02492 -18.563361 -28.25168 -23.69429 -1.506441 -2.484713 0.828391 9.930429 13.169009 -3.639688 -10.383937 -32.500193 3.262349 161.418099 7.706653 -139.73906 69.297282 72.946551 -87.017042 167.95595 46.10057 176.248494 54.047735 -50.329238 52.728777 22.816081 -42.256913 23.167422 -0.0 0.0 0.0 -0.0 -0.0 -0.0 2.512346 0.127625 22.075435 96.382494 -47.046576 -8.794343 -0.0 0.0 0.0 -0.0 -0.0 -0.0 -2.512346 0.127625 -22.075435 -96.382494 -47.046576 8.794343
